0
SECTION
2
HEADER
9
$INSUNITS
70
4
9
$ACADVER
1
AC1014
9
$HANDSEED
5
FFFF
0
ENDSEC
0
SECTION
2
TABLES
0
TABLE
2
VPORT
5
8
100
AcDbSymbolTable
0
ENDTAB
0
TABLE
2
LTYPE
5
5
100
AcDbSymbolTable
0
LTYPE
5
14
100
AcDbSymbolTableRecord
100
AcDbLinetypeTableRecord
2
BYBLOCK
70
0
0
LTYPE
5
15
100
AcDbSymbolTableRecord
100
AcDbLinetypeTableRecord
2
BYLAYER
70
0
0
LTYPE
5
16
100
AcDbSymbolTableRecord
100
AcDbLinetypeTableRecord
2
DASHED
70
0
3
Dashed __ __ __ __ __ __ __ __ __ __ __ __ __ _
72
65
73
2
40
0.75
49
0.5
74
0
49
-0.25
74
0
0
ENDTAB
0
TABLE
2
LAYER
5
2
100
AcDbSymbolTable
70
2
0
LAYER
5
50
100
AcDbSymbolTableRecord
100
AcDbLayerTableRecord
2
0
70
0
62
7
6
CONTINUOUS
0
ENDTAB
0
TABLE
2
STYLE
5
3
100
AcDbSymbolTable
70
1
0
STYLE
5
11
100
AcDbSymbolTableRecord
100
AcDbTextStyleTableRecord
2
STANDARD
70
0
0
ENDTAB
0
TABLE
2
VIEW
5
6
100
AcDbSymbolTable
70
0
0
ENDTAB
0
TABLE
2
UCS
5
7
100
AcDbSymbolTable
70
0
0
ENDTAB
0
TABLE
2
APPID
5
9
100
AcDbSymbolTable
70
2
0
APPID
5
12
100
AcDbSymbolTableRecord
100
AcDbRegAppTableRecord
2
ACAD
70
0
0
ENDTAB
0
TABLE
2
DIMSTYLE
5
A
100
AcDbSymbolTable
70
1
0
ENDTAB
0
TABLE
2
BLOCK_RECORD
5
1
100
AcDbSymbolTable
70
1
0
BLOCK_RECORD
5
1F
100
AcDbSymbolTableRecord
100
AcDbBlockTableRecord
2
*MODEL_SPACE
0
BLOCK_RECORD
5
1B
100
AcDbSymbolTableRecord
100
AcDbBlockTableRecord
2
*PAPER_SPACE
0
ENDTAB
0
ENDSEC
0
SECTION
2
BLOCKS
0
BLOCK
5
20
100
AcDbEntity
100
AcDbBlockBegin
2
*MODEL_SPACE
0
ENDBLK
5
21
100
AcDbEntity
100
AcDbBlockEnd
0
BLOCK
5
1C
100
AcDbEntity
100
AcDbBlockBegin
2
*PAPER_SPACE
0
ENDBLK
5
1D
100
AcDbEntity
100
AcDbBlockEnd
0
ENDSEC
0
SECTION
2
ENTITIES
0
LWPOLYLINE
5
100
100
AcDbEntity
8
0
100
AcDbPolyline
90
24
70
1
43
0.0
10
45
20
20
10
15
20
20
10
15
20
0
10
0
20
0
10
0
20
20
10
-30
20
20
10
-13.465098702509444
20
45.814604639777876
10
-24.0949485549603
20
45.814604639777876
10
-14.679687917260701
20
61.492499788579735
42
-0.99999999999999989
10
-10.560980564547977
20
68.35079766361477
10
-5.1808448201875512
20
77.309572925625488
10
-13.300231573990873
20
77.309572925625488
10
-7.4461199824206314
20
86.11840060966037
42
-0.99999999999999989
10
-4.6786570346021783
20
90.282671113896583
10
5.2860296417452357
20
105.27678362513373
42
-3.3114338573025259
10
9.7139703582547359
20
105.27678362513373
10
28.300231573990871
20
77.309572925625488
10
20.180844820187552
20
77.309572925625488
10
23.17229515271778
20
72.328335925295633
42
-0.99999999999999989
10
26.776164086341595
20
66.327325284640082
10
34.344179952513386
20
53.725384265692
42
-0.99999999999999989
10
37.433210467048085
20
48.58166085941582
10
39.094948554960297
20
45.814604639777876
10
28.465098702509444
20
45.814604639777876
0
CIRCLE
5
101
100
AcDbEntity
8
0
100
AcDbCircle
10
4.4214764741804524
20
78.032328759451147
30
0
40
2.5000000000000018
210
-0
220
0
230
1
0
CIRCLE
5
102
100
AcDbEntity
8
0
100
AcDbCircle
10
-12.620334240904342
20
64.92164872609726
30
0
40
3.9999999999999991
210
-0
220
0
230
1
0
LINE
5
103
100
AcDbEntity
8
0
100
AcDbLine
10
7.4999999999999822
20
108.60820002852276
30
0
11
-13.300231573990873
21
77.309572925625488
31
0
0
CIRCLE
5
104
100
AcDbEntity
8
0
100
AcDbCircle
10
-6.062388508511396
20
88.200535861778462
30
0
40
2.5
210
-0
220
0
230
1
0
CIRCLE
5
105
100
AcDbEntity
8
0
100
AcDbCircle
10
13.867823826146939
20
88.900563141222975
30
0
40
3.0000000000000004
210
-0
220
0
230
1
0
CIRCLE
5
106
100
AcDbEntity
8
0
100
AcDbCircle
10
7.4999999999999822
20
108.60820002852276
30
0
40
3.9999999999999991
210
-0
220
0
230
1
0
CIRCLE
5
107
100
AcDbEntity
8
0
100
AcDbCircle
10
24.974229619529687
20
69.327830604967858
30
0
40
3.499999999999996
210
-0
220
0
230
1
0
CIRCLE
5
108
100
AcDbEntity
8
0
100
AcDbCircle
10
24.974229619529687
20
69.327830604967858
30
0
40
3.499999999999996
210
-0
220
0
230
1
0
CIRCLE
5
109
100
AcDbEntity
8
0
100
AcDbCircle
10
11.664986165303628
20
58.799561648537903
30
0
40
3.9999999999999991
210
-0
220
0
230
1
0
CIRCLE
5
110
100
AcDbEntity
8
0
100
AcDbCircle
10
0.42505733425041825
20
41.565004107589658
30
0
40
3.0000000000000018
210
-0
220
0
230
1
0
CIRCLE
5
111
100
AcDbEntity
8
0
100
AcDbCircle
10
25.107752657200137
20
32.907302319888942
30
0
40
3.5000000000000009
210
-0
220
0
230
1
0
CIRCLE
5
112
100
AcDbEntity
8
0
100
AcDbCircle
10
-14.637896687573928
20
30.07529908029084
30
0
40
2.5
210
-0
220
0
230
1
0
CIRCLE
5
113
100
AcDbEntity
8
0
100
AcDbCircle
10
35.888695209780735
20
51.15352256255391
30
0
40
3.0000000000000027
210
-0
220
0
230
1
0
LWPOLYLINE
5
114
100
AcDbEntity
8
0
100
AcDbPolyline
90
4
70
1
43
0.0
10
0
20
20
10
0
20
0
10
15
20
0
10
15
20
20
0
ENDSEC
0
SECTION
2
OBJECTS
0
DICTIONARY
5
C
100
AcDbDictionary
3
ACAD_GROUP
350
D
3
ACAD_MLINESTYLE
350
17
0
DICTIONARY
5
D
100
AcDbDictionary
0
DICTIONARY
5
1A
330
C
100
AcDbDictionary
0
DICTIONARY
5
17
100
AcDbDictionary
0
ENDSEC
0
EOF
