0
SECTION
2
HEADER
9
$INSUNITS
70
4
9
$ACADVER
1
AC1014
9
$HANDSEED
5
FFFF
0
ENDSEC
0
SECTION
2
TABLES
0
TABLE
2
VPORT
5
8
100
AcDbSymbolTable
0
ENDTAB
0
TABLE
2
LTYPE
5
5
100
AcDbSymbolTable
0
LTYPE
5
14
100
AcDbSymbolTableRecord
100
AcDbLinetypeTableRecord
2
BYBLOCK
70
0
0
LTYPE
5
15
100
AcDbSymbolTableRecord
100
AcDbLinetypeTableRecord
2
BYLAYER
70
0
0
LTYPE
5
16
100
AcDbSymbolTableRecord
100
AcDbLinetypeTableRecord
2
DASHED
70
0
3
Dashed __ __ __ __ __ __ __ __ __ __ __ __ __ _
72
65
73
2
40
0.75
49
0.5
74
0
49
-0.25
74
0
0
ENDTAB
0
TABLE
2
LAYER
5
2
100
AcDbSymbolTable
70
2
0
LAYER
5
50
100
AcDbSymbolTableRecord
100
AcDbLayerTableRecord
2
0
70
0
62
7
6
CONTINUOUS
0
ENDTAB
0
TABLE
2
STYLE
5
3
100
AcDbSymbolTable
70
1
0
STYLE
5
11
100
AcDbSymbolTableRecord
100
AcDbTextStyleTableRecord
2
STANDARD
70
0
0
ENDTAB
0
TABLE
2
VIEW
5
6
100
AcDbSymbolTable
70
0
0
ENDTAB
0
TABLE
2
UCS
5
7
100
AcDbSymbolTable
70
0
0
ENDTAB
0
TABLE
2
APPID
5
9
100
AcDbSymbolTable
70
2
0
APPID
5
12
100
AcDbSymbolTableRecord
100
AcDbRegAppTableRecord
2
ACAD
70
0
0
ENDTAB
0
TABLE
2
DIMSTYLE
5
A
100
AcDbSymbolTable
70
1
0
ENDTAB
0
TABLE
2
BLOCK_RECORD
5
1
100
AcDbSymbolTable
70
1
0
BLOCK_RECORD
5
1F
100
AcDbSymbolTableRecord
100
AcDbBlockTableRecord
2
*MODEL_SPACE
0
BLOCK_RECORD
5
1B
100
AcDbSymbolTableRecord
100
AcDbBlockTableRecord
2
*PAPER_SPACE
0
ENDTAB
0
ENDSEC
0
SECTION
2
BLOCKS
0
BLOCK
5
20
100
AcDbEntity
100
AcDbBlockBegin
2
*MODEL_SPACE
0
ENDBLK
5
21
100
AcDbEntity
100
AcDbBlockEnd
0
BLOCK
5
1C
100
AcDbEntity
100
AcDbBlockBegin
2
*PAPER_SPACE
0
ENDBLK
5
1D
100
AcDbEntity
100
AcDbBlockEnd
0
ENDSEC
0
SECTION
2
ENTITIES
0
LINE
5
100
100
AcDbEntity
8
0
100
AcDbLine
10
0
20
0
30
0
11
190
21
0
31
0
0
LINE
5
101
100
AcDbEntity
8
0
100
AcDbLine
10
190
20
0
30
0
11
190
21
140
31
0
0
LINE
5
102
100
AcDbEntity
8
0
100
AcDbLine
10
190
20
140
30
0
11
0
21
140
31
0
0
LINE
5
103
100
AcDbEntity
8
0
100
AcDbLine
10
0
20
140
30
0
11
0
21
0
31
0
0
LINE
5
104
100
AcDbEntity
8
0
100
AcDbLine
10
320
20
140
30
0
11
320
21
8.5539581749338242e-15
31
0
0
LINE
5
105
100
AcDbEntity
8
0
100
AcDbLine
10
190
20
3.0554271915025001e-15
30
0
11
190
21
140
31
0
0
LINE
5
106
100
AcDbEntity
8
0
100
AcDbLine
10
0
20
0
30
0
11
190
21
0
31
0
0
LINE
5
107
100
AcDbEntity
8
0
100
AcDbLine
10
190
20
-130
30
0
11
-1.0477058897466563e-30
21
-130
31
0
0
LINE
5
108
100
AcDbEntity
8
0
100
AcDbLine
10
0
20
140
30
0
11
190
21
140
31
0
0
LINE
5
109
100
AcDbEntity
8
0
100
AcDbLine
10
190
20
270
30
0
11
-1.9721522630525295e-30
21
270
31
0
0
LINE
5
110
100
AcDbEntity
8
0
100
AcDbLine
10
-130
20
-1.8369701987210276e-15
30
0
11
-130
21
139.99999999999997
31
0
0
LINE
5
111
100
AcDbEntity
8
0
100
AcDbLine
10
0
20
139.99999999999997
30
0
11
0
21
0
31
0
0
LINE
5
112
100
AcDbEntity
8
0
100
AcDbLine
10
190
20
140
30
0
11
190
21
146.80000000000001
31
0
0
LINE
5
113
100
AcDbEntity
8
0
100
AcDbLine
10
190
20
146.80000000000001
30
0
11
211.66666666666669
21
146.80000000000001
31
0
0
LINE
5
114
100
AcDbEntity
8
0
100
AcDbLine
10
211.66666666666669
20
146.80000000000001
30
0
11
211.66666666666669
21
140
31
0
0
LINE
5
115
100
AcDbEntity
8
0
100
AcDbLine
10
211.66666666666669
20
140
30
0
11
233.33333333333337
21
140
31
0
0
LINE
5
116
100
AcDbEntity
8
0
100
AcDbLine
10
233.33333333333331
20
140
30
0
11
233.33333333333331
21
146.80000000000001
31
0
0
LINE
5
117
100
AcDbEntity
8
0
100
AcDbLine
10
233.33333333333331
20
146.80000000000001
30
0
11
255
21
146.80000000000001
31
0
0
LINE
5
118
100
AcDbEntity
8
0
100
AcDbLine
10
255
20
146.80000000000001
30
0
11
255
21
140
31
0
0
LINE
5
119
100
AcDbEntity
8
0
100
AcDbLine
10
255
20
140
30
0
11
276.66666666666669
21
140
31
0
0
LINE
5
120
100
AcDbEntity
8
0
100
AcDbLine
10
276.66666666666663
20
140
30
0
11
276.66666666666663
21
146.80000000000001
31
0
0
LINE
5
121
100
AcDbEntity
8
0
100
AcDbLine
10
276.66666666666663
20
146.80000000000001
30
0
11
298.33333333333331
21
146.80000000000001
31
0
0
LINE
5
122
100
AcDbEntity
8
0
100
AcDbLine
10
298.33333333333331
20
146.80000000000001
30
0
11
298.33333333333331
21
140
31
0
0
LINE
5
123
100
AcDbEntity
8
0
100
AcDbLine
10
298.33333333333331
20
140
30
0
11
320
21
140
31
0
0
LINE
5
124
100
AcDbEntity
8
0
100
AcDbLine
10
190
20
140
30
0
11
190
21
161.66666666666663
31
0
0
LINE
5
125
100
AcDbEntity
8
0
100
AcDbLine
10
190
20
161.66666666666663
30
0
11
196.80000000000001
21
161.66666666666663
31
0
0
LINE
5
126
100
AcDbEntity
8
0
100
AcDbLine
10
196.80000000000001
20
161.66666666666663
30
0
11
196.80000000000001
21
183.33333333333331
31
0
0
LINE
5
127
100
AcDbEntity
8
0
100
AcDbLine
10
196.80000000000001
20
183.33333333333331
30
0
11
190
21
183.33333333333331
31
0
0
LINE
5
128
100
AcDbEntity
8
0
100
AcDbLine
10
190
20
183.33333333333331
30
0
11
190
21
204.99999999999997
31
0
0
LINE
5
129
100
AcDbEntity
8
0
100
AcDbLine
10
190
20
204.99999999999997
30
0
11
196.80000000000001
21
204.99999999999997
31
0
0
LINE
5
130
100
AcDbEntity
8
0
100
AcDbLine
10
196.80000000000001
20
204.99999999999997
30
0
11
196.80000000000001
21
226.66666666666663
31
0
0
LINE
5
131
100
AcDbEntity
8
0
100
AcDbLine
10
196.80000000000001
20
226.66666666666663
30
0
11
190
21
226.66666666666663
31
0
0
LINE
5
132
100
AcDbEntity
8
0
100
AcDbLine
10
190
20
226.66666666666663
30
0
11
190
21
248.33333333333329
31
0
0
LINE
5
133
100
AcDbEntity
8
0
100
AcDbLine
10
190
20
248.33333333333329
30
0
11
196.80000000000001
21
248.33333333333329
31
0
0
LINE
5
134
100
AcDbEntity
8
0
100
AcDbLine
10
196.80000000000001
20
248.33333333333329
30
0
11
196.80000000000001
21
269.99999999999994
31
0
0
LINE
5
135
100
AcDbEntity
8
0
100
AcDbLine
10
196.80000000000001
20
269.99999999999994
30
0
11
190
21
269.99999999999994
31
0
0
LINE
5
136
100
AcDbEntity
8
0
100
AcDbLine
10
233.33333333333331
20
-6.7999999999999972
30
0
11
255
21
-6.7999999999999972
31
0
0
LINE
5
137
100
AcDbEntity
8
0
100
AcDbLine
10
196.80000000000001
20
-21.666666666666643
30
0
11
196.80000000000001
21
-43.333333333333321
31
0
0
LINE
5
138
100
AcDbEntity
8
0
100
AcDbLine
10
276.66666666666663
20
-6.7999999999999972
30
0
11
298.33333333333331
21
-6.7999999999999972
31
0
0
LINE
5
139
100
AcDbEntity
8
0
100
AcDbLine
10
196.80000000000001
20
-64.999999999999972
30
0
11
196.80000000000001
21
-86.666666666666643
31
0
0
LINE
5
140
100
AcDbEntity
8
0
100
AcDbLine
10
211.66666666666669
20
0
30
0
11
233.33333333333337
21
0
31
0
0
LINE
5
141
100
AcDbEntity
8
0
100
AcDbLine
10
196.80000000000001
20
-86.666666666666643
30
0
11
190
21
-86.666666666666643
31
0
0
LINE
5
142
100
AcDbEntity
8
0
100
AcDbLine
10
255
20
0
30
0
11
276.66666666666669
21
0
31
0
0
LINE
5
143
100
AcDbEntity
8
0
100
AcDbLine
10
190
20
-64.999999999999972
30
0
11
196.80000000000001
21
-64.999999999999972
31
0
0
LINE
5
144
100
AcDbEntity
8
0
100
AcDbLine
10
190
20
-6.7999999999999972
30
0
11
211.66666666666669
21
-6.7999999999999972
31
0
0
LINE
5
145
100
AcDbEntity
8
0
100
AcDbLine
10
190
20
0
30
0
11
190
21
-6.7999999999999972
31
0
0
LINE
5
146
100
AcDbEntity
8
0
100
AcDbLine
10
298.33333333333331
20
-6.7999999999999972
30
0
11
298.33333333333331
21
0
31
0
0
LINE
5
147
100
AcDbEntity
8
0
100
AcDbLine
10
276.66666666666663
20
0
30
0
11
276.66666666666663
21
-6.7999999999999972
31
0
0
LINE
5
148
100
AcDbEntity
8
0
100
AcDbLine
10
190
20
-86.666666666666643
30
0
11
190
21
-108.33333333333329
31
0
0
LINE
5
149
100
AcDbEntity
8
0
100
AcDbLine
10
190
20
-43.333333333333321
30
0
11
190
21
-64.999999999999972
31
0
0
LINE
5
150
100
AcDbEntity
8
0
100
AcDbLine
10
190
20
-108.33333333333329
30
0
11
196.80000000000001
21
-108.33333333333329
31
0
0
LINE
5
151
100
AcDbEntity
8
0
100
AcDbLine
10
190
20
-21.666666666666643
30
0
11
196.80000000000001
21
-21.666666666666643
31
0
0
LINE
5
152
100
AcDbEntity
8
0
100
AcDbLine
10
196.80000000000001
20
-43.333333333333321
30
0
11
190
21
-43.333333333333321
31
0
0
LINE
5
153
100
AcDbEntity
8
0
100
AcDbLine
10
190
20
0
30
0
11
190
21
-21.666666666666643
31
0
0
LINE
5
154
100
AcDbEntity
8
0
100
AcDbLine
10
196.80000000000001
20
-129.99999999999997
30
0
11
190
21
-129.99999999999997
31
0
0
LINE
5
155
100
AcDbEntity
8
0
100
AcDbLine
10
255
20
-6.7999999999999972
30
0
11
255
21
0
31
0
0
LINE
5
156
100
AcDbEntity
8
0
100
AcDbLine
10
233.33333333333331
20
0
30
0
11
233.33333333333331
21
-6.7999999999999972
31
0
0
LINE
5
157
100
AcDbEntity
8
0
100
AcDbLine
10
211.66666666666669
20
-6.7999999999999972
30
0
11
211.66666666666669
21
0
31
0
0
LINE
5
158
100
AcDbEntity
8
0
100
AcDbLine
10
298.33333333333331
20
0
30
0
11
320
21
0
31
0
0
LINE
5
159
100
AcDbEntity
8
0
100
AcDbLine
10
196.80000000000001
20
-108.33333333333329
30
0
11
196.80000000000001
21
-129.99999999999997
31
0
0
LINE
5
160
100
AcDbEntity
8
0
100
AcDbLine
10
-43.333333333333321
20
0
30
0
11
-43.333333333333321
21
-6.7999999999999972
31
0
0
LINE
5
161
100
AcDbEntity
8
0
100
AcDbLine
10
-21.666666666666679
20
0
30
0
11
-43.333333333333357
21
0
31
0
0
LINE
5
162
100
AcDbEntity
8
0
100
AcDbLine
10
-6.7999999999999972
20
204.99999999999997
30
0
11
-6.7999999999999972
21
226.66666666666663
31
0
0
LINE
5
163
100
AcDbEntity
8
0
100
AcDbLine
10
-108.33333333333331
20
146.80000000000001
30
0
11
-108.33333333333331
21
140
31
0
0
LINE
5
164
100
AcDbEntity
8
0
100
AcDbLine
10
-86.666666666666643
20
140
30
0
11
-86.666666666666643
21
146.80000000000001
31
0
0
LINE
5
165
100
AcDbEntity
8
0
100
AcDbLine
10
-21.666666666666679
20
-6.7999999999999972
30
0
11
-21.666666666666679
21
0
31
0
0
LINE
5
166
100
AcDbEntity
8
0
100
AcDbLine
10
-86.666666666666643
20
0
30
0
11
-86.666666666666643
21
-6.7999999999999972
31
0
0
LINE
5
167
100
AcDbEntity
8
0
100
AcDbLine
10
-108.33333333333331
20
140
30
0
11
-130
21
140
31
0
0
LINE
5
168
100
AcDbEntity
8
0
100
AcDbLine
10
-43.333333333333321
20
146.80000000000001
30
0
11
-65
21
146.80000000000001
31
0
0
LINE
5
169
100
AcDbEntity
8
0
100
AcDbLine
10
-21.666666666666679
20
146.80000000000001
30
0
11
-21.666666666666679
21
140
31
0
0
LINE
5
170
100
AcDbEntity
8
0
100
AcDbLine
10
0
20
183.33333333333331
30
0
11
0
21
204.99999999999997
31
0
0
LINE
5
171
100
AcDbEntity
8
0
100
AcDbLine
10
0
20
-6.7999999999999972
30
0
11
-21.666666666666679
21
-6.7999999999999972
31
0
0
LINE
5
172
100
AcDbEntity
8
0
100
AcDbLine
10
-6.7999999999999972
20
-86.666666666666643
30
0
11
0
21
-86.666666666666643
31
0
0
LINE
5
173
100
AcDbEntity
8
0
100
AcDbLine
10
-6.7999999999999972
20
-129.99999999999997
30
0
11
0
21
-129.99999999999997
31
0
0
LINE
5
174
100
AcDbEntity
8
0
100
AcDbLine
10
0
20
-43.333333333333321
30
0
11
0
21
-64.999999999999972
31
0
0
LINE
5
175
100
AcDbEntity
8
0
100
AcDbLine
10
-6.7999999999999972
20
226.66666666666663
30
0
11
0
21
226.66666666666663
31
0
0
LINE
5
176
100
AcDbEntity
8
0
100
AcDbLine
10
0
20
-86.666666666666643
30
0
11
0
21
-108.3333333333333
31
0
0
LINE
5
177
100
AcDbEntity
8
0
100
AcDbLine
10
-6.7999999999999972
20
161.66666666666663
30
0
11
-6.7999999999999972
21
183.33333333333331
31
0
0
LINE
5
178
100
AcDbEntity
8
0
100
AcDbLine
10
-65
20
140
30
0
11
-86.666666666666686
21
140
31
0
0
LINE
5
179
100
AcDbEntity
8
0
100
AcDbLine
10
-65
20
-6.7999999999999972
30
0
11
-65
21
0
31
0
0
LINE
5
180
100
AcDbEntity
8
0
100
AcDbLine
10
-6.7999999999999972
20
-64.999999999999972
30
0
11
-6.7999999999999972
21
-86.666666666666643
31
0
0
LINE
5
181
100
AcDbEntity
8
0
100
AcDbLine
10
-108.33333333333331
20
0
30
0
11
-130
21
0
31
0
0
LINE
5
182
100
AcDbEntity
8
0
100
AcDbLine
10
-130
20
140
30
0
11
-130
21
8.5539581749338242e-15
31
0
0
LINE
5
183
100
AcDbEntity
8
0
100
AcDbLine
10
-6.7999999999999972
20
248.33333333333329
30
0
11
-6.7999999999999972
21
269.99999999999994
31
0
0
LINE
5
184
100
AcDbEntity
8
0
100
AcDbLine
10
-43.333333333333321
20
-6.7999999999999972
30
0
11
-65
21
-6.7999999999999972
31
0
0
LINE
5
185
100
AcDbEntity
8
0
100
AcDbLine
10
-6.7999999999999972
20
-21.666666666666643
30
0
11
-6.7999999999999972
21
-43.333333333333321
31
0
0
LINE
5
186
100
AcDbEntity
8
0
100
AcDbLine
10
-86.666666666666643
20
146.80000000000001
30
0
11
-108.33333333333331
21
146.80000000000001
31
0
0
LINE
5
187
100
AcDbEntity
8
0
100
AcDbLine
10
-6.7999999999999972
20
-108.33333333333329
30
0
11
-6.7999999999999972
21
-129.99999999999997
31
0
0
LINE
5
188
100
AcDbEntity
8
0
100
AcDbLine
10
0
20
140
30
0
11
0
21
161.66666666666663
31
0
0
LINE
5
189
100
AcDbEntity
8
0
100
AcDbLine
10
-108.33333333333331
20
-6.7999999999999972
30
0
11
-108.33333333333331
21
0
31
0
0
LINE
5
190
100
AcDbEntity
8
0
100
AcDbLine
10
0
20
226.66666666666663
30
0
11
0
21
248.33333333333329
31
0
0
LINE
5
191
100
AcDbEntity
8
0
100
AcDbLine
10
-6.7999999999999972
20
269.99999999999994
30
0
11
0
21
269.99999999999994
31
0
0
LINE
5
192
100
AcDbEntity
8
0
100
AcDbLine
10
-65
20
0
30
0
11
-86.666666666666686
21
0
31
0
0
LINE
5
193
100
AcDbEntity
8
0
100
AcDbLine
10
-86.666666666666643
20
-6.7999999999999972
30
0
11
-108.33333333333331
21
-6.7999999999999972
31
0
0
LINE
5
194
100
AcDbEntity
8
0
100
AcDbLine
10
-65
20
146.80000000000001
30
0
11
-65
21
140
31
0
0
LINE
5
195
100
AcDbEntity
8
0
100
AcDbLine
10
-43.333333333333321
20
140
30
0
11
-43.333333333333321
21
146.80000000000001
31
0
0
LINE
5
196
100
AcDbEntity
8
0
100
AcDbLine
10
-21.666666666666679
20
140
30
0
11
-43.333333333333357
21
140
31
0
0
LINE
5
197
100
AcDbEntity
8
0
100
AcDbLine
10
0
20
-64.999999999999972
30
0
11
-6.7999999999999972
21
-64.999999999999972
31
0
0
LINE
5
198
100
AcDbEntity
8
0
100
AcDbLine
10
0
20
0
30
0
11
0
21
140
31
0
0
LINE
5
199
100
AcDbEntity
8
0
100
AcDbLine
10
0
20
146.80000000000001
30
0
11
-21.666666666666679
21
146.80000000000001
31
0
0
LINE
5
200
100
AcDbEntity
8
0
100
AcDbLine
10
-6.7999999999999972
20
183.33333333333331
30
0
11
0
21
183.33333333333331
31
0
0
LINE
5
201
100
AcDbEntity
8
0
100
AcDbLine
10
0
20
140
30
0
11
0
21
146.80000000000001
31
0
0
LINE
5
202
100
AcDbEntity
8
0
100
AcDbLine
10
0
20
0
30
0
11
0
21
-21.666666666666643
31
0
0
LINE
5
203
100
AcDbEntity
8
0
100
AcDbLine
10
0
20
0
30
0
11
0
21
140
31
0
0
LINE
5
204
100
AcDbEntity
8
0
100
AcDbLine
10
0
20
-21.666666666666643
30
0
11
-6.7999999999999972
21
-21.666666666666643
31
0
0
LINE
5
205
100
AcDbEntity
8
0
100
AcDbLine
10
0
20
204.99999999999997
30
0
11
-6.7999999999999972
21
204.99999999999997
31
0
0
LINE
5
206
100
AcDbEntity
8
0
100
AcDbLine
10
0
20
-108.3333333333333
30
0
11
-6.7999999999999972
21
-108.33333333333329
31
0
0
LINE
5
207
100
AcDbEntity
8
0
100
AcDbLine
10
0
20
0
30
0
11
0
21
-6.7999999999999972
31
0
0
LINE
5
208
100
AcDbEntity
8
0
100
AcDbLine
10
0
20
248.33333333333329
30
0
11
-6.7999999999999972
21
248.33333333333329
31
0
0
LINE
5
209
100
AcDbEntity
8
0
100
AcDbLine
10
0
20
161.66666666666663
30
0
11
-6.7999999999999972
21
161.66666666666663
31
0
0
LINE
5
210
100
AcDbEntity
8
0
100
AcDbLine
10
-6.7999999999999972
20
-43.333333333333321
30
0
11
0
21
-43.333333333333321
31
0
0
LWPOLYLINE
5
211
100
AcDbEntity
8
0
100
AcDbPolyline
90
4
70
1
43
0.0
10
290.00000000000006
20
102.49999999999986
10
265
20
102.49999999999987
10
265.00000000000006
20
37.499999999999872
10
290.00000000000006
20
37.499999999999872
0
CIRCLE
5
212
100
AcDbEntity
8
0
100
AcDbCircle
10
277.5
20
102.49999999999986
30
0
40
12.499999999999998
210
0
220
0
230
1
0
CIRCLE
5
213
100
AcDbEntity
8
0
100
AcDbCircle
10
277.5
20
37.500000000000128
30
0
40
12.499999999999998
210
0
220
0
230
1
0
LWPOLYLINE
5
214
100
AcDbEntity
8
0
100
AcDbPolyline
90
4
70
1
43
0.0
10
-100.00000000000001
20
102.49999999999986
10
-75
20
102.49999999999987
10
-75.000000000000057
20
37.499999999999872
10
-100.00000000000007
20
37.499999999999872
0
CIRCLE
5
215
100
AcDbEntity
8
0
100
AcDbCircle
10
-87.500000000000028
20
102.49999999999986
30
0
40
12.499999999999998
210
0
220
0
230
1
0
CIRCLE
5
216
100
AcDbEntity
8
0
100
AcDbCircle
10
-87.500000000000014
20
37.500000000000128
30
0
40
12.499999999999998
210
0
220
0
230
1
0
LINE
5
217
100
AcDbEntity
8
0
100
AcDbLine
10
-108.33333333333331
20
140
30
0
11
-108.33333333333331
21
-6.7999999999999972
31
0
0
LINE
5
218
100
AcDbEntity
8
0
100
AcDbLine
10
298.33333333333331
20
146.80000000000001
30
0
11
298.33333333333331
21
0
31
0
0
LINE
5
219
100
AcDbEntity
8
0
100
AcDbLine
10
305.13333333333333
20
140
30
0
11
305.13333333333333
21
0
31
0
0
LINE
5
220
100
AcDbEntity
8
0
100
AcDbLine
10
-115.13333333333333
20
140
30
0
11
-115.13333333333333
21
0
31
0
0
LINE
5
221
100
AcDbEntity
8
0
100
AcDbLine
10
-108.33333333333331
20
146.80000000000001
30
0
11
-108.33333333333331
21
0
31
0
0
LINE
5
222
100
AcDbEntity
8
0
100
AcDbLine
10
190
20
-108.33333333333329
30
0
11
0
21
-108.3333333333333
31
0
0
LINE
5
223
100
AcDbEntity
8
0
100
AcDbLine
10
196.80000000000001
20
-115.13333333333328
30
0
11
-6.8598948365475554
21
-116.00493912493516
31
0
0
LINE
5
224
100
AcDbEntity
8
0
100
AcDbLine
10
190
20
248.33333333333329
30
0
11
0
21
248.33333333333329
31
0
0
LINE
5
225
100
AcDbEntity
8
0
100
AcDbLine
10
196.80000000000001
20
255.13333333333327
30
0
11
-6.8598948365475554
21
256.00493912493516
31
0
0
ENDSEC
0
SECTION
2
OBJECTS
0
DICTIONARY
5
C
100
AcDbDictionary
3
ACAD_GROUP
350
D
3
ACAD_MLINESTYLE
350
17
0
DICTIONARY
5
D
100
AcDbDictionary
0
DICTIONARY
5
1A
330
C
100
AcDbDictionary
0
DICTIONARY
5
17
100
AcDbDictionary
0
ENDSEC
0
EOF
